<?xml version="1.0" encoding="utf-8"?>
<!-- Generator: Adobe Illustrator 27.4.0, SVG Export Plug-In . SVG Version: 6.00 Build 0)  -->
<svg version="1.1" xmlns="http://www.w3.org/2000/svg" xmlns:xlink="http://www.w3.org/1999/xlink" x="0px" y="0px"
	 viewBox="0 0 112.13 112.13" style="enable-background:new 0 0 112.13 112.13;" xml:space="preserve">
<style type="text/css">
	.st0{display:none;}
	.st1{display:inline;}
	.st2{fill:none;stroke:#231F20;stroke-width:2;stroke-miterlimit:10;}
	.st3{fill:none;stroke:#231F20;stroke-width:2;stroke-linecap:round;stroke-linejoin:round;stroke-miterlimit:10;}
	.st4{fill:none;stroke:#2C2865;stroke-linecap:square;stroke-linejoin:round;stroke-miterlimit:10;}
	.st5{fill:#FFFFFF;}
	.st6{font-family:'MyriadPro-Regular';}
	.st7{font-size:6px;}
	.st8{fill:#2C2865;}
	.st9{fill:none;stroke:#231F20;stroke-width:2;stroke-linejoin:round;stroke-miterlimit:10;}
</style>
<g id="learning-spaces" class="st0">
	<g class="st1">
		<polyline class="st2" points="50.17,75.91 9.66,75.91 9.66,6.06 101.87,6.06 101.87,75.91 93.04,75.91 		"/>
		<path class="st2" d="M86.58,77.98v-9.57c0-4.69-3.57-8.49-7.96-8.49c-2.52,0-5.03,0-7.55,0c-2.34,0-4.67,0-7.01,0
			c-4.4,0-7.96,3.8-7.96,8.49v9.57"/>
		<ellipse class="st2" cx="71.28" cy="46.18" rx="7.81" ry="9.56"/>
		<path class="st3" d="M24.99,106.06c0.08-0.52,0.12-1.06,0.12-1.61c0-5.61-4.26-10.15-9.52-10.15s-9.52,4.55-9.52,10.15
			c0,0.55,0.04,1.08,0.12,1.61"/>
		<path class="st3" d="M51.97,106.06c0.08-0.52,0.12-1.06,0.12-1.61c0-5.61-4.26-10.15-9.52-10.15s-9.52,4.55-9.52,10.15
			c0,0.55,0.04,1.08,0.12,1.61"/>
		<path class="st3" d="M37.8,95.34c0.07-0.5,0.11-1.01,0.11-1.53c0-5.35-4.06-9.68-9.08-9.68s-9.08,4.33-9.08,9.68
			c0,0.52,0.04,1.03,0.11,1.53"/>
		<path class="st3" d="M78.96,106.06c0.08-0.52,0.12-1.06,0.12-1.61c0-5.61-4.26-10.15-9.52-10.15s-9.52,4.55-9.52,10.15
			c0,0.55,0.04,1.08,0.12,1.61"/>
		<path class="st3" d="M64.78,95.34c0.07-0.5,0.11-1.01,0.11-1.53c0-5.35-4.06-9.68-9.08-9.68s-9.08,4.33-9.08,9.68
			c0,0.52,0.04,1.03,0.11,1.53"/>
		<path class="st3" d="M105.94,106.06c0.08-0.52,0.12-1.06,0.12-1.61c0-5.61-4.26-10.15-9.52-10.15s-9.52,4.55-9.52,10.15
			c0,0.55,0.04,1.08,0.12,1.61"/>
		<path class="st3" d="M91.77,95.34c0.07-0.5,0.11-1.01,0.11-1.53c0-5.35-4.06-9.68-9.08-9.68c-5.01,0-9.08,4.33-9.08,9.68
			c0,0.52,0.04,1.03,0.11,1.53"/>
	</g>
</g>
<g id="classrooms" class="st0">
	<g class="st1">
		<g>
			<g>
				<g>
					<path class="st4" d="M45.06,41.56h0.24c1.12,0,1.99,0.98,1.86,2.09l-0.12,1.02c-0.11,0.95-0.91,1.66-1.86,1.66l0,0
						c-0.95,0-1.75-0.71-1.86-1.66l-0.12-1.02C43.07,42.54,43.94,41.56,45.06,41.56z"/>
					<path class="st4" d="M45.18,61.3v6.18c0,0.66-0.53,1.19-1.19,1.19l0,0c-0.66,0-1.19-0.53-1.19-1.19V61.3"/>
					<path class="st4" d="M47.57,61.3v6.18c0,0.66-0.53,1.19-1.19,1.19l0,0c-0.66,0-1.19-0.53-1.19-1.19V61.3"/>
				</g>
			</g>
		</g>
		<polyline class="st4" points="50.88,46.3 50.88,41.79 67.13,41.79 72.21,41.79 72.21,46.86 72.21,57.94 50.88,57.94 50.88,53.4 		
			"/>
		<g>
			<path class="st4" d="M57.36,61.99h0.2c0.97,0,1.72,0.84,1.6,1.8l-0.1,0.87c-0.09,0.81-0.78,1.43-1.6,1.43l0,0
				c-0.82,0-1.51-0.61-1.6-1.43l-0.1-0.87C55.65,62.83,56.4,61.99,57.36,61.99z"/>
			<path class="st4" d="M53.39,70.56v-1.08c0-1.21,0.98-2.19,2.19-2.19h3.78c1.21,0,2.19,0.98,2.19,2.19v1.08"/>
			<path class="st4" d="M65.52,61.99h0.2c0.97,0,1.72,0.84,1.61,1.8l-0.1,0.87c-0.09,0.81-0.78,1.43-1.6,1.43l0,0
				c-0.82,0-1.51-0.61-1.61-1.43l-0.1-0.87C63.81,62.83,64.56,61.99,65.52,61.99z"/>
			<path class="st4" d="M61.54,70.56v-1.08c0-1.21,0.98-2.19,2.19-2.19h3.78c1.21,0,2.19,0.98,2.19,2.19v1.08"/>
		</g>
		<polyline class="st4" points="56.76,48.05 57.73,47.43 57.73,52.01 		"/>
		<line class="st4" x1="59.24" y1="52.01" x2="56.21" y2="52.01"/>
		<line class="st4" x1="63.43" y1="49.25" x2="60.4" y2="49.25"/>
		<line class="st4" x1="61.91" y1="50.77" x2="61.91" y2="47.74"/>
		<polyline class="st4" points="65.47,47.43 68.1,47.43 65.76,51.65 		"/>
		<path class="st4" d="M42.85,50.85l-0.61,5.64l-2.32,4.81h5.26h5.26l-2.26-4.81l-0.57-4.7l0,0c0-0.42,0.28-0.86,0.7-0.89L52,50.79
			c1.3-0.03,2.34-1.09,2.34-2.39l0,0l-6.36-0.2l-5.54-0.05c-1.06,0.24-1.35,1.18-1.35,1.18s-0.34,2.52-0.39,4.22
			c-0.07,2,1.74,2.27,1.74,2.27"/>
	</g>
</g>
<g id="students-capacity" class="st0">
	<g class="st1">
		<path class="st2" d="M102.5,23.95H9.62c-1.97,0-3.56-1.59-3.56-3.56v0c0-1.97,1.59-3.56,3.56-3.56h92.88
			c1.97,0,3.56,1.59,3.56,3.56v0C106.06,22.36,104.47,23.95,102.5,23.95z"/>
		<polyline class="st2" points="41.43,16.94 55.95,6.06 70.92,16.94 		"/>
		<path class="st3" d="M27.46,61.86H16.1c-2.6,0-4.71-1.81-4.71-4.05V24.09"/>
		<path class="st3" d="M84.89,61.86h11.36c2.6,0,4.71-1.81,4.71-4.05V24.09"/>
		<ellipse class="st3" cx="39.6" cy="56.28" rx="7.43" ry="7.25"/>
		<path class="st3" d="M27.13,75.73v-2.29c0-3.19,3-5.77,6.71-5.77h11.47c3.7,0,6.71,2.58,6.71,5.77v2.24"/>
		<g>
			<ellipse class="st3" cx="23.08" cy="86.61" rx="7.43" ry="7.25"/>
			<path class="st3" d="M10.61,106.06v-2.29c0-3.19,3-5.77,6.71-5.77h11.47c3.7,0,6.71,2.58,6.71,5.77v2.24"/>
		</g>
		<g>
			<ellipse class="st3" cx="56.17" cy="86.61" rx="7.43" ry="7.25"/>
			<path class="st3" d="M43.7,106.06v-2.29c0-3.19,3-5.77,6.71-5.77h11.47c3.7,0,6.71,2.58,6.71,5.77v2.24"/>
		</g>
		<g>
			<ellipse class="st3" cx="89.27" cy="86.61" rx="7.43" ry="7.25"/>
			<path class="st3" d="M76.8,106.06v-2.29c0-3.19,3-5.77,6.71-5.77h11.47c3.7,0,6.71,2.58,6.71,5.77v2.24"/>
		</g>
		<ellipse class="st3" cx="73.08" cy="56.28" rx="7.43" ry="7.25"/>
		<path class="st3" d="M60.61,75.73v-2.29c0-3.19,3-5.77,6.71-5.77h11.47c3.7,0,6.71,2.58,6.71,5.77v2.24"/>
		<line class="st3" x1="51.33" y1="61.7" x2="61.16" y2="61.7"/>
	</g>
</g>
<g id="To_become_agents_of_social" class="st0">
	<g class="st1">
		<g>
			<g>
				<polyline class="st3" points="13.56,77.52 13.56,38.04 12.27,37.22 				"/>
				<polyline class="st3" points="25.76,77.52 25.76,38.04 27.06,37.22 				"/>
				<path class="st3" d="M28.37,55.14h2.47V32.52c0,0-1.56-8.29-10.86-8.29h-0.65c-9.3,0-10.86,8.29-10.86,8.29v22.62h2.47"/>
				<line class="st3" x1="19.82" y1="57.67" x2="19.82" y2="78.03"/>
				<ellipse class="st3" cx="19.82" cy="12.64" rx="4.25" ry="6.58"/>
			</g>
			<g>
				<polyline class="st3" points="86.37,77.52 86.37,38.04 85.08,37.22 				"/>
				<polyline class="st3" points="98.58,77.52 98.58,38.04 99.87,37.22 				"/>
				<path class="st3" d="M101.19,55.14h2.47V32.52c0,0-1.56-8.29-10.86-8.29h-0.65c-9.3,0-10.86,8.29-10.86,8.29v22.62h2.47"/>
				<line class="st3" x1="92.64" y1="57.67" x2="92.64" y2="78.03"/>
				<ellipse class="st3" cx="92.64" cy="12.64" rx="4.25" ry="6.58"/>
			</g>
			<ellipse class="st3" cx="56.27" cy="16.81" rx="6.09" ry="9.3"/>
			<path class="st3" d="M53.43,57.06c0,0,11.62,0,14.95,0c3.33,0,3.5-3.22,3.5-3.22s-0.7-9.53-2.31-16.72s-7.53-6.24-7.53-6.24
				l-5.92,14.67h-0.16l-5.92-14.67c0,0-7.1-0.96-8.71,6.24c-1.61,7.2-2.31,16.72-2.31,16.72s0.16,3.22,3.5,3.22s14.95,0,14.95,0"/>
			<line class="st3" x1="56.02" y1="31.15" x2="56.02" y2="45.54"/>
			<path class="st3" d="M64.51,42.53l0.22,6.17c0,0-4.73-2.4-8.93-1.71c-4.19,0.69-9.2-0.89-9.2-0.89"/>
			<path class="st3" d="M58.65,56.92c0,0-8.87-8.57-13.39-7.2c0.48-2.4,1.18-6.85,1.18-6.85"/>
			<line class="st3" x1="46.63" y1="57.06" x2="46.63" y2="100.65"/>
			<line class="st3" x1="65.35" y1="57.06" x2="65.35" y2="100.85"/>
			<polyline class="st3" points="53.17,100.65 55.99,71.55 59.3,100.34 			"/>
			<path class="st3" d="M65.35,92.1c6.09,1.24,10.24,3.71,10.24,6.56c0,4.09-8.55,7.4-19.09,7.4s-19.09-3.31-19.09-7.4
				c0-2.7,3.73-5.06,9.29-6.35"/>
			<path class="st3" d="M26.09,75.38c4.34,0.88,7.3,2.64,7.3,4.68c0,2.91-6.09,5.28-13.61,5.28S6.18,82.97,6.18,80.06
				c0-1.92,2.66-3.61,6.62-4.53"/>
			<path class="st3" d="M98.88,75.38c4.34,0.88,7.3,2.64,7.3,4.68c0,2.91-6.09,5.28-13.61,5.28s-13.61-2.36-13.61-5.28
				c0-1.92,2.66-3.61,6.62-4.53"/>
			<path class="st3" d="M54.01,91.32c0.81-0.04,1.64-0.06,2.49-0.06c0.59,0,1.18,0.01,1.76,0.03"/>
		</g>
		<line class="st3" x1="73.47" y1="94.64" x2="85.5" y2="84.94"/>
		<line class="st3" x1="39.44" y1="94.64" x2="27.41" y2="84.94"/>
	</g>
</g>
<g id="To_be_unselfish_in_the_service">
	<text transform="matrix(1 0 0 1 -16.9821 -4.3829)" class="st5 st6 st7">To be unselfish in the service of their fellow human beings;</text>
	<g>
		<path class="st2" d="M18.79,71.94c12.98,0,6.24,14.79,6.24,14.79s5.3,8.69,5.72,14.97c-5.13,5.2-12.56,4.3-12.56,4.3h0.43
			c0,0-7.43,0.9-12.56-4.3c0.43-6.27,5.72-14.97,5.72-14.97s-6.75-14.79,6.24-14.79H18.79z"/>
		<path class="st2" d="M67.8,63.25H12.68c-3,0-5.42-2.55-5.42-5.69v-45.8c0-3.14,2.43-5.69,5.42-5.69h60.05c3,0,5.42,2.55,5.42,5.69
			v5.48"/>
		<path class="st2" d="M43.18,71.94c12.98,0,6.24,14.79,6.24,14.79s5.3,8.69,5.72,14.97c-5.13,5.2-12.56,4.3-12.56,4.3h0.43
			c0,0-7.43,0.9-12.56-4.3c0.43-6.27,5.72-14.97,5.72-14.97s-6.75-14.79,6.24-14.79H43.18z"/>
		<path class="st2" d="M67.86,71.94c12.98,0,6.24,14.79,6.24,14.79s5.3,8.69,5.72,14.97c-5.13,5.2-12.56,4.3-12.56,4.3h0.43
			c0,0-7.43,0.9-12.56-4.3c0.43-6.27,5.72-14.97,5.72-14.97s-6.75-14.79,6.24-14.79H67.86z"/>
		<path class="st3" d="M67.68,71.44l0.28-25.81l-5.01,3.41c0,0-9.62,2.27-15.49,2.33c-5.87,0.06-5.3-7.23-1.48-7.77
			s11.67-1.67,11.67-1.67s8.68-4.68,11.41-6.08c2.73-1.39,15.49-3.27,22.36,1.23c6.87,4.5,13.25,12.95,14.24,14.62
			c0.99,1.67,0.19,4.06-2.96,8.84c-3.15,4.78-5.43,9.32-9.49,6.21c-3.57-2.55,0.57-7.57,3.68-12.23c-4.52-3.98-7.82-7.29-7.82-7.29
			V75H85.2v26.17h-5.38"/>
		<ellipse class="st2" cx="79.93" cy="25.54" rx="8.3" ry="8.7"/>
	</g>
</g>
<g id="To_value_and_judiciously" class="st0">
	<g class="st1">
		<circle class="st3" cx="46" cy="45.66" r="38.03"/>
		<g>
			<path class="st3" d="M21.49,33.02c0,0,7.28-14.68,23.11-14.68s23.36,10.6,25.53,14.55"/>
			<path class="st3" d="M70.13,58.3c0,0-7.28,14.68-23.11,14.68s-23.36-10.6-25.53-14.55"/>
			<path class="st3" d="M46.77,30.98c15.45,0,27.83,14.43,27.83,14.43S62.34,60.21,46.77,60.21h-1.53
				C29.66,60.21,17.4,45.4,17.4,45.4s12.38-14.43,27.83-14.43H46.77z"/>
			<circle class="st3" cx="46.15" cy="45.77" r="14.22"/>
			<circle class="st3" cx="46.29" cy="45.76" r="6.67"/>
		</g>
		<line class="st3" x1="72.46" y1="72.98" x2="104.85" y2="104.47"/>
	</g>
</g>
<g id="To_encourage_them_to_strive" class="st0">
	<g class="st1">
		<g>
			<g>
				<g>
					<path class="st4" d="M45.06,41.56h0.24c1.12,0,1.99,0.98,1.86,2.09l-0.12,1.02c-0.11,0.95-0.91,1.66-1.86,1.66l0,0
						c-0.95,0-1.75-0.71-1.86-1.66l-0.12-1.02C43.07,42.54,43.94,41.56,45.06,41.56z"/>
					<path class="st4" d="M45.18,61.3v6.18c0,0.66-0.53,1.19-1.19,1.19l0,0c-0.66,0-1.19-0.53-1.19-1.19V61.3"/>
					<path class="st4" d="M47.57,61.3v6.18c0,0.66-0.53,1.19-1.19,1.19l0,0c-0.66,0-1.19-0.53-1.19-1.19V61.3"/>
				</g>
			</g>
		</g>
		<polyline class="st4" points="50.88,46.3 50.88,41.79 67.13,41.79 72.21,41.79 72.21,46.86 72.21,57.94 50.88,57.94 50.88,53.4 		
			"/>
		<g>
			<path class="st4" d="M57.36,61.99h0.2c0.97,0,1.72,0.84,1.6,1.8l-0.1,0.87c-0.09,0.81-0.78,1.43-1.6,1.43l0,0
				c-0.82,0-1.51-0.61-1.6-1.43l-0.1-0.87C55.65,62.83,56.4,61.99,57.36,61.99z"/>
			<path class="st4" d="M53.39,70.56v-1.08c0-1.21,0.98-2.19,2.19-2.19h3.78c1.21,0,2.19,0.98,2.19,2.19v1.08"/>
			<path class="st4" d="M65.52,61.99h0.2c0.97,0,1.72,0.84,1.61,1.8l-0.1,0.87c-0.09,0.81-0.78,1.43-1.6,1.43l0,0
				c-0.82,0-1.51-0.61-1.6-1.43l-0.1-0.87C63.81,62.83,64.56,61.99,65.52,61.99z"/>
			<path class="st4" d="M61.54,70.56v-1.08c0-1.21,0.98-2.19,2.19-2.19h3.78c1.21,0,2.19,0.98,2.19,2.19v1.08"/>
		</g>
		<polyline class="st4" points="56.76,48.05 57.73,47.43 57.73,52.01 		"/>
		<line class="st4" x1="59.24" y1="52.01" x2="56.21" y2="52.01"/>
		<line class="st4" x1="63.43" y1="49.25" x2="60.4" y2="49.25"/>
		<line class="st4" x1="61.91" y1="50.77" x2="61.91" y2="47.74"/>
		<polyline class="st4" points="65.47,47.43 68.1,47.43 65.76,51.65 		"/>
		<path class="st4" d="M42.85,50.85l-0.61,5.64l-2.32,4.81h5.26h5.26l-2.26-4.81l-0.57-4.7l0,0c0-0.42,0.28-0.86,0.7-0.89L52,50.79
			c1.3-0.03,2.34-1.09,2.34-2.39l0,0l-6.36-0.2l-5.54-0.05c-1.06,0.24-1.35,1.18-1.35,1.18s-0.34,2.52-0.39,4.22
			c-0.07,2,1.74,2.27,1.74,2.27"/>
	</g>
</g>
<g id="To_help_the_students_become_mature" class="st0">
	<g class="st1">
		<path class="st9" d="M76.32,34.18l-0.99,5.2C74.18,47.08,63.8,52.9,55.88,52.9l0,0c-7.95,0-18.3-5.82-19.45-13.53l-0.99-5.21"/>
		<polygon class="st9" points="55.88,21.08 14.25,13.57 55.88,6.06 97.51,13.57 		"/>
		<path class="st9" d="M78.44,17.01v11.97l0,0c-14.73,3.26-30.38,3.26-45.11,0l0,0V17.01"/>
		<line class="st9" x1="21.05" y1="13.57" x2="21.05" y2="35.53"/>
		<path class="st9" d="M32.18,59.12l-9.19,11.31l9.84,2.82L27.7,78.4l27.96,16.91L36.53,58.95c-3.1,0.23-6.58,0.68-9.64,1.47l0,0
			c-4.63,0.89-8.74,2.59-12.05,4.84c-5.47,3.72-8.78,8.96-8.78,14.65v26.16"/>
		<path class="st9" d="M21.05,35.53c1.75,0,3.29,0.89,3.76,2.18l2.78,7.62H14.51l0,0l2.78-7.62C17.76,36.42,19.3,35.53,21.05,35.53"
			/>
		<g>
			<polygon class="st9" points="51.03,58.77 48.35,65.31 55.66,69.35 62.98,65.31 60.53,58.77 			"/>
			<line class="st9" x1="48.08" y1="80.9" x2="51.94" y2="67.09"/>
			<line class="st9" x1="59.78" y1="67.09" x2="63.5" y2="80.41"/>
		</g>
		<path class="st9" d="M79.16,59.12l9.21,11.31l-9.86,2.82l5.13,5.15L55.66,95.31l19.15-36.39c3.99,0.3,7.68,0.97,10.39,1.49l0,0
			c12.31,2.37,20.86,10.36,20.86,19.49v26.16"/>
	</g>
</g>
</svg>
